HIERARCHY
ROOT Hips
{
	OFFSET -0.001795 -0.223333 0.028219
	CHANNELS 6 Xposition Yposition Zposition Zrotation Yrotation Xrotation 
	JOINT LeftUpLeg
	{
		OFFSET 0.069520 -0.091406 -0.006815
		CHANNELS 3 Zrotation Yrotation Xrotation
		JOINT LeftLeg
		{
			OFFSET 0.034277 -0.375199 -0.004496
			CHANNELS 3 Zrotation Yrotation Xrotation
			JOINT LeftFoot
			{
				OFFSET -0.013596 -0.397961 -0.043693
				CHANNELS 3 Zrotation Yrotation Xrotation
				JOINT LeftToe
				{
					OFFSET 0.026358 -0.055791 0.119288
					CHANNELS 3 Zrotation Yrotation Xrotation
					End Site
					{
						OFFSET 0.000000 0.000000 0.000000
					}
				}
			}
		}
	}
	JOINT RightUpLeg
	{
		OFFSET -0.067670 -0.090522 -0.004320
		CHANNELS 3 Zrotation Yrotation Xrotation
		JOINT RightLeg
		{
			OFFSET -0.038290 -0.382569 -0.008850
			CHANNELS 3 Zrotation Yrotation Xrotation
			JOINT RightFoot
			{
				OFFSET 0.015774 -0.398415 -0.042312
				CHANNELS 3 Zrotation Yrotation Xrotation
				JOINT RightToe
				{
					OFFSET -0.025372 -0.048144 0.123348
					CHANNELS 3 Zrotation Yrotation Xrotation
					End Site
					{
						OFFSET 0.000000 0.000000 0.000000
					}
				}
			}
		}
	}
	JOINT Spine
	{
		OFFSET -0.002533 0.108963 -0.026696
		CHANNELS 3 Zrotation Yrotation Xrotation
		JOINT Spine1
		{
			OFFSET 0.005487 0.135180 0.001092
			CHANNELS 3 Zrotation Yrotation Xrotation
			JOINT Spine2
			{
				OFFSET 0.001457 0.052922 0.025425
				CHANNELS 3 Zrotation Yrotation Xrotation
				JOINT Neck
				{
					OFFSET -0.002778 0.213870 -0.042857
					CHANNELS 3 Zrotation Yrotation Xrotation
					JOINT Head
					{
						OFFSET 0.005152 0.064970 0.051349
						CHANNELS 3 Zrotation Yrotation Xrotation
						End Site
						{
							OFFSET 0.000000 0.000000 0.000000
						}
					}
				}
				JOINT LeftShoulder
				{
					OFFSET 0.078845 0.121749 -0.034090
					CHANNELS 3 Zrotation Yrotation Xrotation
					JOINT LeftArm
					{
						OFFSET 0.090977 0.030469 -0.008868
						CHANNELS 3 Zrotation Yrotation Xrotation
						JOINT LeftForeArm
						{
							OFFSET 0.259612 -0.012772 -0.027456
							CHANNELS 3 Zrotation Yrotation Xrotation
							JOINT LeftHand
							{
								OFFSET 0.249234 0.008986 -0.001171
								CHANNELS 3 Zrotation Yrotation Xrotation
								End Site
								{
									OFFSET 0.000000 0.000000 0.000000
								}
							}
						}
					}
				}
				JOINT RightShoulder
				{
					OFFSET -0.081759 0.118833 -0.038615
					CHANNELS 3 Zrotation Yrotation Xrotation
					JOINT RightArm
					{
						OFFSET -0.096012 0.032551 -0.009143
						CHANNELS 3 Zrotation Yrotation Xrotation
						JOINT RightForeArm
						{
							OFFSET -0.253742 -0.013329 -0.021401
							CHANNELS 3 Zrotation Yrotation Xrotation
							JOINT RightHand
							{
								OFFSET -0.255298 0.007772 -0.005559
								CHANNELS 3 Zrotation Yrotation Xrotation
								End Site
								{
									OFFSET 0.000000 0.000000 0.000000
								}
							}
						}
					}
				}
			}
		}
	}
}
MOTION
Frames: 10
Frame Time: 0.050000
0.000000 0.951339 0.000000 -1.295768 1.099681 -1.578651 3.038986 0.287219 5.092367 -2.967000 0.358548 -5.163767 1.992533 7.359827 9.552743 0.000000 0.000000 0.000000 0.542497 -0.453040 4.156313 2.084501 -0.262751 -1.641605 -2.463894 -8.862537 9.059597 0.000000 0.000000 0.000000 -2.150628 -0.120097 5.559786 4.263057 -0.621299 -20.789466 -0.222223 -0.605155 26.539923 -0.172597 1.839517 -28.915301 0.000000 0.000000 0.000000 -30.853137 -4.631223 1.043061 -46.226419 -7.502444 -4.815507 -13.782163 -24.332950 4.137186 0.000000 0.000000 0.000000 22.298376 9.749725 4.401233 52.032949 6.992210 -4.402576 7.056655 27.606335 2.812850 0.000000 0.000000 0.000000 
-0.000104 0.950456 0.000454 -1.443728 0.592758 -1.231522 3.264782 0.286311 5.219233 -2.698283 0.349818 -5.663712 2.032948 7.075449 8.448686 0.000000 0.000000 0.000000 0.295492 -0.397904 3.773465 2.164258 -0.267489 -1.627103 -2.301052 -8.367623 8.233792 0.000000 0.000000 0.000000 -1.949572 -0.123526 5.404502 3.794057 -0.512112 -20.577935 0.162039 -0.430061 26.077539 -0.259794 1.891107 -29.417082 0.000000 0.000000 0.000000 -30.998744 -4.887805 1.257351 -46.161809 -7.421567 -4.817126 -14.333594 -24.327982 4.255933 0.000000 0.000000 0.000000 21.566259 9.876916 4.386754 53.429534 5.978691 -4.863012 6.526747 28.739136 2.828943 0.000000 0.000000 0.000000 
-0.000113 0.950267 0.000642 -1.169694 0.271472 -1.027859 3.226780 0.242417 4.421212 -3.069389 0.364380 -4.179092 2.027433 6.777040 7.530511 0.000000 0.000000 0.000000 0.316679 -0.372452 3.531433 1.798986 -0.231718 -1.625982 -2.512157 -8.915833 8.590059 0.000000 0.000000 0.000000 -1.875349 -0.127900 5.518135 3.647001 -0.483693 -20.470945 0.127259 -0.388833 25.555870 -0.725139 2.105660 -29.193741 0.000000 0.000000 0.000000 -30.804963 -4.890532 1.312047 -45.663315 -7.584088 -4.688345 -14.329986 -23.701027 4.125345 0.000000 0.000000 0.000000 22.178066 10.492933 4.670770 52.531807 6.024722 -4.690077 6.139310 28.826670 2.702359 0.000000 0.000000 0.000000 
-0.000177 0.949728 0.000811 -1.180506 0.260344 -1.166377 3.512075 0.247260 4.714030 -3.345675 0.384965 -4.256041 2.027290 6.710597 7.302132 0.000000 0.000000 0.000000 0.224801 -0.382238 3.673533 2.072989 -0.260475 -1.774123 -2.590227 -9.178115 9.009585 0.000000 0.000000 0.000000 -2.132843 -0.120394 5.747152 4.089007 -0.595553 -20.658411 0.020694 -0.234725 25.504026 -0.548784 2.048362 -29.474107 0.000000 0.000000 0.000000 -31.521082 -5.032114 1.307936 -44.886056 -7.523470 -4.614561 -15.105399 -23.589807 4.254035 0.000000 0.000000 0.000000 22.374216 10.917717 4.967934 51.733357 5.464577 -4.868638 7.016504 29.892081 3.035815 0.000000 0.000000 0.000000 
-0.000291 0.949871 0.000869 -1.131001 0.105362 -1.390476 3.502144 0.248591 4.657502 -3.338783 0.384409 -3.884113 1.952704 6.528877 7.166057 0.000000 0.000000 0.000000 0.251401 -0.414556 3.982375 1.894067 -0.244747 -1.823284 -2.407858 -8.833423 9.032993 0.000000 0.000000 0.000000 -2.053747 -0.139251 6.329782 4.059457 -0.615193 -20.302262 0.055715 -0.031505 24.939449 -0.895793 2.237379 -29.037217 0.000000 0.000000 0.000000 -31.368271 -5.197844 1.346449 -44.578161 -7.747230 -4.436271 -15.643059 -24.285178 4.490685 0.000000 0.000000 0.000000 22.972003 10.913477 4.992268 50.671709 5.683433 -4.643059 7.338339 30.593919 3.186446 0.000000 0.000000 0.000000 
-0.000307 0.949857 0.000885 -1.188894 0.235487 -1.408087 3.563038 0.243145 4.646242 -3.269887 0.377578 -3.761776 1.741243 6.011397 6.682537 0.000000 0.000000 0.000000 0.119410 -0.418742 4.087349 2.137802 -0.266936 -1.797716 -2.520008 -9.014996 8.909089 0.000000 0.000000 0.000000 -2.024484 -0.143216 6.399450 4.106972 -0.614250 -20.468097 0.129188 -0.232733 25.206081 -1.016106 2.296314 -29.473706 0.000000 0.000000 0.000000 -31.416383 -5.412239 1.559181 -44.349924 -7.888302 -4.413121 -16.207212 -24.864314 4.738633 0.000000 0.000000 0.000000 23.186548 11.365822 5.240191 50.075245 5.987477 -4.498484 7.251348 30.939442 3.194155 0.000000 0.000000 0.000000 
-0.000288 0.949986 0.000770 -1.213588 0.338260 -1.380900 3.719245 0.228917 4.563398 -3.379362 0.385848 -3.910965 1.729841 6.111802 7.051685 0.000000 0.000000 0.000000 0.174494 -0.406081 3.929018 2.091869 -0.258151 -1.555070 -2.500854 -8.953489 8.849092 0.000000 0.000000 0.000000 -1.986874 -0.151882 6.658717 4.250696 -0.663563 -20.283755 0.029482 -0.352417 24.930418 -0.973891 2.259700 -29.331711 0.000000 0.000000 0.000000 -31.642142 -5.352701 1.519168 -44.028020 -8.209333 -4.261434 -16.387018 -25.337416 4.875504 0.000000 0.000000 0.000000 23.484907 11.576800 5.351557 49.503338 6.259931 -4.319672 7.127621 31.552691 3.223282 0.000000 0.000000 0.000000 
-0.000208 0.950036 0.000578 -1.264608 0.386866 -1.318076 3.683502 0.217449 4.358292 -3.280235 0.377039 -3.723141 1.702007 5.956678 6.702933 0.000000 0.000000 0.000000 0.324487 -0.404777 3.836232 2.022636 -0.247463 -1.359809 -2.605194 -9.058184 8.442249 0.000000 0.000000 0.000000 -1.890142 -0.160722 6.775041 4.223194 -0.659502 -20.204469 0.055637 -0.302734 24.954283 -0.878702 2.225470 -29.434010 0.000000 0.000000 0.000000 -31.535421 -5.866130 1.848381 -43.777950 -8.500751 -4.140413 -16.497173 -25.958350 5.023420 0.000000 0.000000 0.000000 23.603162 11.748318 5.491147 49.260298 6.621564 -4.173822 7.081041 31.999077 3.268946 0.000000 0.000000 0.000000 
-0.000124 0.950295 0.000337 -1.311579 0.395858 -1.259184 3.743754 0.206216 4.226888 -3.320628 0.380025 -3.745783 1.746358 6.095832 6.892557 0.000000 0.000000 0.000000 0.366794 -0.394968 3.719426 2.044297 -0.248384 -1.306098 -2.575661 -8.995892 8.437818 0.000000 0.000000 0.000000 -1.966794 -0.157768 6.858177 4.402157 -0.713739 -20.137901 0.144990 -0.226450 24.916546 -0.843766 2.223787 -29.531079 0.000000 0.000000 0.000000 -31.535411 -6.065891 1.950034 -43.771533 -8.838793 -4.010499 -16.614830 -26.336419 5.127468 0.000000 0.000000 0.000000 23.750727 11.855680 5.588987 48.829222 6.828159 -4.068204 7.001215 32.364672 3.290242 0.000000 0.000000 0.000000 
-0.000072 0.950547 0.000124 -1.304954 0.332613 -1.184299 3.693484 0.194142 3.974853 -3.161951 0.367454 -3.593810 1.789323 6.156839 6.854112 0.000000 0.000000 0.000000 0.421677 -0.387638 3.623462 1.967734 -0.239792 -1.261595 -2.611765 -9.037894 8.286835 0.000000 0.000000 0.000000 -1.982007 -0.155533 6.835398 4.328315 -0.707650 -19.921858 0.232215 -0.122269 24.865841 -0.778574 2.208338 -29.728343 0.000000 0.000000 0.000000 -31.433373 -6.388430 2.147691 -43.743747 -9.098179 -3.907500 -16.581506 -26.722576 5.195772 0.000000 0.000000 0.000000 23.776024 12.114092 5.764561 48.872774 7.083870 -3.969466 6.825290 32.569946 3.269536 0.000000 0.000000 0.000000 
